0
SECTION
2
HEADER
9
$ACADVER
1
AC1021
9
$INSUNITS
70
4
9
$INSBASE
10
0
20
0
30
0
0
ENDSEC
0
SECTION
2
TABLES
0
TABLE
2
LTYPE
5
107
330
0
100
AcDbSymbolTable
70
8
0
LTYPE
5
108
330
107
100
AcDbSymbolTableRecord
100
AcDbLinetypeTableRecord
2
BYLAYER
70
0
3
ByLayer
72
65
73
0
40
0
0
LTYPE
5
109
330
107
100
AcDbSymbolTableRecord
100
AcDbLinetypeTableRecord
2
BYBLOCK
70
0
3
ByBlock
72
65
73
0
40
0
0
LTYPE
5
10A
330
107
100
AcDbSymbolTableRecord
100
AcDbLinetypeTableRecord
2
CONTINUOUS
70
0
3
Heldragen
72
65
73
0
40
0
0
LTYPE
5
10B
330
107
100
AcDbSymbolTableRecord
100
AcDbLinetypeTableRecord
2
DASHED
70
0
3
Streckad
72
65
73
2
40
12
49
8
74
0
49
-4
74
0
0
LTYPE
5
10C
330
107
100
AcDbSymbolTableRecord
100
AcDbLinetypeTableRecord
2
DOTTED
70
0
3
Prickad
72
65
73
2
40
3.5
49
0.5
74
0
49
-3
74
0
0
LTYPE
5
10D
330
107
100
AcDbSymbolTableRecord
100
AcDbLinetypeTableRecord
2
CENTER
70
0
3
Centrumlinje
72
65
73
4
40
20
49
12
74
0
49
-3
74
0
49
2
74
0
49
-3
74
0
0
LTYPE
5
10E
330
107
100
AcDbSymbolTableRecord
100
AcDbLinetypeTableRecord
2
HIDDEN
70
0
3
Dold linje
72
65
73
2
40
6
49
4
74
0
49
-2
74
0
0
LTYPE
5
10F
330
107
100
AcDbSymbolTableRecord
100
AcDbLinetypeTableRecord
2
LIRA_LINE_1
70
0
3
LIRA_LINE_1
72
65
73
0
40
0
0
ENDTAB
0
TABLE
2
LAYER
5
10
330
0
100
AcDbSymbolTable
70
1
0
LAYER
5
110
330
10
100
AcDbSymbolTableRecord
100
AcDbLayerTableRecord
2
0
70
0
62
7
6
LIRA_LINE_1
290
1
0
ENDTAB
0
TABLE
2
APPID
5
111
100
AcDbSymbolTable
70
1
0
APPID
5
112
100
AcDbSymbolTableRecord
100
AcDbRegAppTableRecord
2
LIRA_ANNOTATION
70
0
0
ENDTAB
0
TABLE
2
STYLE
5
113
330
0
100
AcDbSymbolTable
70
1
0
STYLE
5
114
100
AcDbSymbolTableRecord
100
AcDbTextStyleTableRecord
2
LIRA_TEXT_1
70
0
40
0
41
1
50
0
71
0
42
2.5
3
isocpeur.ttf
4

0
ENDTAB
0
TABLE
2
BLOCK_RECORD
5
102
330
0
100
AcDbSymbolTable
70
2
0
BLOCK_RECORD
5
103
330
102
100
AcDbSymbolTableRecord
100
AcDbBlockTableRecord
2
*Model_Space
340
104
70
4
0
BLOCK_RECORD
5
105
330
102
100
AcDbSymbolTableRecord
100
AcDbBlockTableRecord
2
*Paper_Space
340
106
70
4
0
ENDTAB
0
ENDSEC
0
SECTION
2
BLOCKS
0
BLOCK
5
148
330
103
100
AcDbEntity
8
0
100
AcDbBlockBegin
2
*Model_Space
70
0
10
0
20
0
30
0
3
*Model_Space
1

0
ENDBLK
5
149
330
103
100
AcDbEntity
8
0
100
AcDbBlockEnd
0
BLOCK
5
14A
330
105
100
AcDbEntity
8
0
100
AcDbBlockBegin
2
*Paper_Space
70
0
10
0
20
0
30
0
3
*Paper_Space
1

0
ENDBLK
5
14B
330
105
100
AcDbEntity
8
0
100
AcDbBlockEnd
0
ENDSEC
0
SECTION
2
ENTITIES
0
LINE
5
115
330
103
100
AcDbEntity
8
0
6
BYLAYER
48
1
420
65280
100
AcDbLine
10
-100
20
0
11
0
21
0
0
LINE
5
116
330
103
100
AcDbEntity
8
0
6
BYLAYER
48
1
420
65280
100
AcDbLine
10
0
20
0
11
0
21
122.99999999999997
0
LINE
5
117
330
103
100
AcDbEntity
8
0
6
BYLAYER
48
1
420
65280
100
AcDbLine
10
0
20
123
11
-100
21
123
0
LINE
5
118
330
103
100
AcDbEntity
8
0
6
BYLAYER
48
1
420
65280
100
AcDbLine
10
-99.99999999999977
20
123
11
-100
21
1.4210854715202004e-14
0
LINE
5
119
330
103
100
AcDbEntity
8
0
6
BYLAYER
48
1
420
16711680
100
AcDbLine
10
-100
20
10
11
0
21
10
0
LINE
5
11A
330
103
100
AcDbEntity
8
0
6
BYLAYER
48
1
420
16711680
100
AcDbLine
10
-100
20
26
11
0
21
26
0
LINE
5
11B
330
103
100
AcDbEntity
8
0
6
BYLAYER
48
1
420
65280
100
AcDbLine
10
-100
20
34
11
0
21
34
0
LINE
5
11C
330
103
100
AcDbEntity
8
0
6
BYLAYER
48
1
420
16711680
100
AcDbLine
10
-100
20
42
11
0
21
42
0
LINE
5
11D
330
103
100
AcDbEntity
8
0
6
BYLAYER
48
1
420
16711680
100
AcDbLine
10
-100
20
50
11
0
21
50
0
LINE
5
11E
330
103
100
AcDbEntity
8
0
6
BYLAYER
48
1
420
65280
100
AcDbLine
10
-100
20
75
11
0
21
75
0
LINE
5
11F
330
103
100
AcDbEntity
8
0
6
BYLAYER
48
1
420
16711680
100
AcDbLine
10
-100
20
95
11
0
21
95
0
LINE
5
120
330
103
100
AcDbEntity
8
0
6
BYLAYER
48
1
420
16711680
100
AcDbLine
10
-100
20
103
11
0
21
103
0
LINE
5
121
330
103
100
AcDbEntity
8
0
6
BYLAYER
48
1
420
65280
100
AcDbLine
10
-100
20
113
11
0
21
113
0
LINE
5
122
330
103
100
AcDbEntity
8
0
6
BYLAYER
48
1
420
16711680
100
AcDbLine
10
-20
20
0
11
-20
21
25.999999999999986
0
LINE
5
123
330
103
100
AcDbEntity
8
0
6
BYLAYER
48
1
420
16711680
100
AcDbLine
10
-50
20
49.999999999999986
11
-50
21
34
0
LINE
5
124
330
103
100
AcDbEntity
8
0
6
BYLAYER
48
1
420
16711680
100
AcDbLine
10
-80
20
102.99999999999997
11
-80
21
95
0
TEXT
5
125
330
103
100
AcDbEntity
8
0
6
BYLAYER
48
1
420
16711680
100
AcDbText
10
0
20
7.700000000000003
40
1.5
1
BET 
7
LIRA_TEXT_1
41
1
51
0
71
0
72
2
11
0
21
7.700000000000003
31
0
73
0
50
0
100
AcDbText
0
TEXT
5
126
330
103
100
AcDbEntity
8
0
6
BYLAYER
48
1
420
16711680
100
AcDbText
10
-20
20
7.700000000000003
40
1.5
1
NUMMER 
7
LIRA_TEXT_1
41
1
51
0
71
0
72
2
11
-20
21
7.700000000000003
31
0
73
0
50
0
100
AcDbText
0
LINE
5
127
330
103
100
AcDbEntity
8
0
6
BYLAYER
48
1
420
16711680
100
AcDbLine
10
-20
20
18
11
0
21
18
0
TEXT
5
128
330
103
100
AcDbEntity
8
0
6
BYLAYER
48
1
420
16711680
100
AcDbText
10
0
20
15.699999999999989
40
1.5
1
SKALA 
7
LIRA_TEXT_1
41
1
51
0
71
0
72
2
11
0
21
15.699999999999989
31
0
73
0
50
0
100
AcDbText
0
TEXT
5
129
330
103
100
AcDbEntity
8
0
6
BYLAYER
48
1
420
16711680
100
AcDbText
10
0
20
23.700000000000003
40
1.5
1
FORMAT 
7
LIRA_TEXT_1
41
1
51
0
71
0
72
2
11
0
21
23.700000000000003
31
0
73
0
50
0
100
AcDbText
0
TEXT
5
12A
330
103
100
AcDbEntity
8
0
6
BYLAYER
48
1
420
16711680
100
AcDbText
10
-20
20
23.700000000000003
40
1.5
1
INNEHÅLL 
7
LIRA_TEXT_1
41
1
51
0
71
0
72
2
11
-20
21
23.700000000000003
31
0
73
0
50
0
100
AcDbText
0
TEXT
5
12B
330
103
100
AcDbEntity
8
0
6
BYLAYER
48
1
420
16711680
100
AcDbText
10
0
20
31.700000000000003
40
1.5
1
RITNINGSKATEGORI 
7
LIRA_TEXT_1
41
1
51
0
71
0
72
2
11
0
21
31.700000000000003
31
0
73
0
50
0
100
AcDbText
0
TEXT
5
12C
330
103
100
AcDbEntity
8
0
6
BYLAYER
48
1
420
16711680
100
AcDbText
10
0
20
39.7
40
1.5
1
UPPDRAGSNUMMER 
7
LIRA_TEXT_1
41
1
51
0
71
0
72
2
11
0
21
39.7
31
0
73
0
50
0
100
AcDbText
0
TEXT
5
12D
330
103
100
AcDbEntity
8
0
6
BYLAYER
48
1
420
16711680
100
AcDbText
10
0
20
47.7
40
1.5
1
SKAPAD AV 
7
LIRA_TEXT_1
41
1
51
0
71
0
72
2
11
0
21
47.7
31
0
73
0
50
0
100
AcDbText
0
TEXT
5
12E
330
103
100
AcDbEntity
8
0
6
BYLAYER
48
1
420
16711680
100
AcDbText
10
-50
20
47.7
40
1.5
1
KONTAKTPERSON 
7
LIRA_TEXT_1
41
1
51
0
71
0
72
2
11
-50
21
47.7
31
0
73
0
50
0
100
AcDbText
0
TEXT
5
12F
330
103
100
AcDbEntity
8
0
6
BYLAYER
48
1
420
16711680
100
AcDbText
10
-50
20
39.7
40
1.5
1
GODKÄND AV 
7
LIRA_TEXT_1
41
1
51
0
71
0
72
2
11
-50
21
39.7
31
0
73
0
50
0
100
AcDbText
0
TEXT
5
130
330
103
100
AcDbEntity
8
0
6
BYLAYER
48
1
420
16711680
100
AcDbText
10
0
20
72.69999999999999
40
1.5
1
ANSVARIG PART 
7
LIRA_TEXT_1
41
1
51
0
71
0
72
2
11
0
21
72.69999999999999
31
0
73
0
50
0
100
AcDbText
0
TEXT
5
131
330
103
100
AcDbEntity
8
0
6
BYLAYER
48
1
420
16711680
100
AcDbText
10
0
20
92.69999999999999
40
1.5
1
PROJEKT 
7
LIRA_TEXT_1
41
1
51
0
71
0
72
2
11
0
21
92.69999999999999
31
0
73
0
50
0
100
AcDbText
0
TEXT
5
132
330
103
100
AcDbEntity
8
0
6
BYLAYER
48
1
420
16711680
100
AcDbText
10
0
20
100.69999999999999
40
1.5
1
ÄNDRING 
7
LIRA_TEXT_1
41
1
51
0
71
0
72
2
11
0
21
100.69999999999999
31
0
73
0
50
0
100
AcDbText
0
TEXT
5
133
330
103
100
AcDbEntity
8
0
6
BYLAYER
48
1
420
16711680
100
AcDbText
10
-80
20
100.69999999999999
40
1.5
1
DATUM 
7
LIRA_TEXT_1
41
1
51
0
71
0
72
2
11
-80
21
100.69999999999999
31
0
73
0
50
0
100
AcDbText
0
TEXT
5
134
330
103
100
AcDbEntity
8
0
6
BYLAYER
48
1
420
16711680
100
AcDbText
10
0
20
110.69999999999999
40
1.5
1
HANDLING 
7
LIRA_TEXT_1
41
1
51
0
71
0
72
2
11
0
21
110.69999999999999
31
0
73
0
50
0
100
AcDbText
0
TEXT
5
135
330
103
100
AcDbEntity
8
0
6
BYLAYER
48
1
420
16711680
100
AcDbText
10
0
20
120.43352301058917
40
1.5
1
STATUS 
7
LIRA_TEXT_1
41
1
51
0
71
0
72
2
11
0
21
120.43352301058917
31
0
73
0
50
0
100
AcDbText
0
TEXT
5
136
330
103
100
AcDbEntity
8
0
6
BYLAYER
48
1
420
16711935
100
AcDbText
10
-50
20
114
40
7
1
STATUS
7
LIRA_TEXT_1
41
1
51
0
71
0
72
1
11
-50
21
114
31
0
73
0
50
0
100
AcDbText
0
TEXT
5
137
330
103
100
AcDbEntity
8
0
6
BYLAYER
48
1
420
16711935
100
AcDbText
10
-50
20
104
40
7
1
HANDLING
7
LIRA_TEXT_1
41
1
51
0
71
0
72
1
11
-50
21
104
31
0
73
0
50
0
100
AcDbText
0
TEXT
5
138
330
103
100
AcDbEntity
8
0
6
BYLAYER
48
1
420
65535
100
AcDbText
10
-99
20
96
40
3.5
1
DATUM
7
LIRA_TEXT_1
41
1
51
0
71
0
72
0
73
0
50
0
100
AcDbText
0
TEXT
5
139
330
103
100
AcDbEntity
8
0
6
BYLAYER
48
1
420
65535
100
AcDbText
10
-79
20
96
40
3.5
1
-
7
LIRA_TEXT_1
41
1
51
0
71
0
72
0
73
0
50
0
100
AcDbText
0
TEXT
5
13A
330
103
100
AcDbEntity
8
0
6
BYLAYER
48
1
420
65280
100
AcDbText
10
-99
20
87
40
5
1
-
7
LIRA_TEXT_1
41
1
51
0
71
0
72
0
73
0
50
0
100
AcDbText
0
TEXT
5
13B
330
103
100
AcDbEntity
8
0
6
BYLAYER
48
1
420
65280
100
AcDbText
10
-99
20
78
40
5
1
-
7
LIRA_TEXT_1
41
1
51
0
71
0
72
0
73
0
50
0
100
AcDbText
0
TEXT
5
13C
330
103
100
AcDbEntity
8
0
6
BYLAYER
48
1
420
65535
100
AcDbText
10
-99
20
43.000000000000014
40
3.5
1
-
7
LIRA_TEXT_1
41
1
51
0
71
0
72
0
73
0
50
0
100
AcDbText
0
TEXT
5
13D
330
103
100
AcDbEntity
8
0
6
BYLAYER
48
1
420
65535
100
AcDbText
10
-49
20
43.000000000000014
40
3.5
1
-
7
LIRA_TEXT_1
41
1
51
0
71
0
72
0
73
0
50
0
100
AcDbText
0
TEXT
5
13E
330
103
100
AcDbEntity
8
0
6
BYLAYER
48
1
420
65535
100
AcDbText
10
-99
20
35.000000000000014
40
3.5
1
-
7
LIRA_TEXT_1
41
1
51
0
71
0
72
0
73
0
50
0
100
AcDbText
0
TEXT
5
13F
330
103
100
AcDbEntity
8
0
6
BYLAYER
48
1
420
65535
100
AcDbText
10
-49
20
35.000000000000014
40
3.5
1
-
7
LIRA_TEXT_1
41
1
51
0
71
0
72
0
73
0
50
0
100
AcDbText
0
TEXT
5
140
330
103
100
AcDbEntity
8
0
6
BYLAYER
48
1
420
65535
100
AcDbText
10
-99
20
27.000000000000014
40
3.5
1
-
7
LIRA_TEXT_1
41
1
51
0
71
0
72
0
73
0
50
0
100
AcDbText
0
TEXT
5
141
330
103
100
AcDbEntity
8
0
6
BYLAYER
48
1
420
65535
100
AcDbText
10
-99
20
20.500000000000014
40
3.5
1
-
7
LIRA_TEXT_1
41
1
51
0
71
0
72
0
73
0
50
0
100
AcDbText
0
TEXT
5
142
330
103
100
AcDbEntity
8
0
6
BYLAYER
48
1
420
65535
100
AcDbText
10
-99
20
15.500000000000014
40
3.5
1
-
7
LIRA_TEXT_1
41
1
51
0
71
0
72
0
73
0
50
0
100
AcDbText
0
TEXT
5
143
330
103
100
AcDbEntity
8
0
6
BYLAYER
48
1
420
65535
100
AcDbText
10
-99
20
10.500000000000014
40
3.5
1
-
7
LIRA_TEXT_1
41
1
51
0
71
0
72
0
73
0
50
0
100
AcDbText
0
TEXT
5
144
330
103
100
AcDbEntity
8
0
6
BYLAYER
48
1
420
65280
100
AcDbText
10
-19
20
19.000000000000014
40
5
1
A1
7
LIRA_TEXT_1
41
1
51
0
71
0
72
0
73
0
50
0
100
AcDbText
0
TEXT
5
145
330
103
100
AcDbEntity
8
0
6
BYLAYER
48
1
420
65280
100
AcDbText
10
-19
20
11.000000000000028
40
5
1
-
7
LIRA_TEXT_1
41
1
51
0
71
0
72
0
73
0
50
0
100
AcDbText
0
TEXT
5
146
330
103
100
AcDbEntity
8
0
6
BYLAYER
48
1
420
16711935
100
AcDbText
10
-19.5
20
1.0000000000000284
40
7
1
-
7
LIRA_TEXT_1
41
1
51
0
71
0
72
0
73
0
50
0
100
AcDbText
0
TEXT
5
147
330
103
100
AcDbEntity
8
0
6
BYLAYER
48
1
420
16711935
100
AcDbText
10
-99.5
20
1.0000000000000142
40
7
1
-
7
LIRA_TEXT_1
41
1
51
0
71
0
72
0
73
0
50
0
100
AcDbText
0
ENDSEC
0
SECTION
2
OBJECTS
0
DICTIONARY
5
100
330
0
100
AcDbDictionary
281
1
3
ACAD_LAYOUT
350
101
0
DICTIONARY
5
101
330
100
100
AcDbDictionary
281
1
3
Model
350
104
3
Layout1
350
106
0
LAYOUT
5
104
330
101
100
AcDbPlotSettings
1

2

4
ISO 420 x 297 MM
40
0
41
0
42
0
43
0
44
420
45
297
46
0
47
0
142
1
143
1
70
0
72
1
73
0
74
5
100
AcDbLayout
1
Model
70
1
71
0
10
0
20
0
11
420
21
297
12
0
22
0
32
0
14
0
24
0
34
0
15
420
25
297
35
0
330
103
0
LAYOUT
5
106
330
101
100
AcDbPlotSettings
1

2

4
ISO 420 x 297 MM
40
0
41
0
42
0
43
0
44
420
45
297
46
0
47
0
142
1
143
1
70
0
72
1
73
0
74
5
100
AcDbLayout
1
Layout1
70
1
71
1
10
0
20
0
11
420
21
297
12
0
22
0
32
0
14
0
24
0
34
0
15
420
25
297
35
0
330
105
0
ENDSEC
0
EOF
