0
SECTION
2
HEADER
9
$ACADVER
1
AC1021
9
$INSUNITS
70
4
9
$INSBASE
10
0
20
0
30
0
0
ENDSEC
0
SECTION
2
TABLES
0
TABLE
2
LTYPE
5
108
330
0
100
AcDbSymbolTable
70
8
0
LTYPE
5
109
330
108
100
AcDbSymbolTableRecord
100
AcDbLinetypeTableRecord
2
BYLAYER
70
0
3
ByLayer
72
65
73
0
40
0
0
LTYPE
5
10A
330
108
100
AcDbSymbolTableRecord
100
AcDbLinetypeTableRecord
2
BYBLOCK
70
0
3
ByBlock
72
65
73
0
40
0
0
LTYPE
5
10B
330
108
100
AcDbSymbolTableRecord
100
AcDbLinetypeTableRecord
2
CONTINUOUS
70
0
3
Heldragen
72
65
73
0
40
0
0
LTYPE
5
10C
330
108
100
AcDbSymbolTableRecord
100
AcDbLinetypeTableRecord
2
DASHED
70
0
3
Streckad
72
65
73
2
40
12
49
8
74
0
49
-4
74
0
0
LTYPE
5
10D
330
108
100
AcDbSymbolTableRecord
100
AcDbLinetypeTableRecord
2
DOTTED
70
0
3
Prickad
72
65
73
2
40
3.5
49
0.5
74
0
49
-3
74
0
0
LTYPE
5
10E
330
108
100
AcDbSymbolTableRecord
100
AcDbLinetypeTableRecord
2
CENTER
70
0
3
Centrumlinje
72
65
73
4
40
20
49
12
74
0
49
-3
74
0
49
2
74
0
49
-3
74
0
0
LTYPE
5
10F
330
108
100
AcDbSymbolTableRecord
100
AcDbLinetypeTableRecord
2
HIDDEN
70
0
3
Dold linje
72
65
73
2
40
6
49
4
74
0
49
-2
74
0
0
LTYPE
5
110
330
108
100
AcDbSymbolTableRecord
100
AcDbLinetypeTableRecord
2
LIRA_LINE_1
70
0
3
LIRA_LINE_1
72
65
73
0
40
0
0
ENDTAB
0
TABLE
2
LAYER
5
10
330
0
100
AcDbSymbolTable
70
1
0
LAYER
5
111
330
10
100
AcDbSymbolTableRecord
100
AcDbLayerTableRecord
2
0
70
0
62
7
6
LIRA_LINE_1
290
1
0
ENDTAB
0
TABLE
2
APPID
5
112
100
AcDbSymbolTable
70
1
0
APPID
5
113
100
AcDbSymbolTableRecord
100
AcDbRegAppTableRecord
2
LIRA_ANNOTATION
70
0
0
ENDTAB
0
TABLE
2
BLOCK_RECORD
5
102
330
0
100
AcDbSymbolTable
70
3
0
BLOCK_RECORD
5
103
330
102
100
AcDbSymbolTableRecord
100
AcDbBlockTableRecord
2
*Model_Space
340
104
70
4
0
BLOCK_RECORD
5
105
330
102
100
AcDbSymbolTableRecord
100
AcDbBlockTableRecord
2
*Paper_Space
340
106
70
4
0
BLOCK_RECORD
5
107
330
102
100
AcDbSymbolTableRecord
100
AcDbBlockTableRecord
2
CON_RITRAM_A4_STÅENDE
70
4
0
ENDTAB
0
ENDSEC
0
SECTION
2
BLOCKS
0
BLOCK
5
115
330
103
100
AcDbEntity
8
0
100
AcDbBlockBegin
2
*Model_Space
70
0
10
0
20
0
30
0
3
*Model_Space
1

0
ENDBLK
5
116
330
103
100
AcDbEntity
8
0
100
AcDbBlockEnd
0
BLOCK
5
117
330
105
100
AcDbEntity
8
0
100
AcDbBlockBegin
2
*Paper_Space
70
0
10
0
20
0
30
0
3
*Paper_Space
1

0
ENDBLK
5
118
330
105
100
AcDbEntity
8
0
100
AcDbBlockEnd
0
BLOCK
5
119
330
107
100
AcDbEntity
8
0
100
AcDbBlockBegin
2
CON_RITRAM_A4_STÅENDE
70
0
10
0
20
0
30
0
3
CON_RITRAM_A4_STÅENDE
1

0
LWPOLYLINE
5
11A
330
107
100
AcDbEntity
8
0
6
BYLAYER
48
1
420
65280
100
AcDbPolyline
90
4
70
1
10
20
20
287
10
200
20
287
10
200
20
10.000000000000014
10
20
20
10.000000000000036
0
LINE
5
11B
330
107
100
AcDbEntity
8
0
6
BYLAYER
48
1
420
16711680
100
AcDbLine
10
0
20
0
11
20
21
0
0
LINE
5
11C
330
107
100
AcDbEntity
8
0
6
BYLAYER
48
1
420
16711680
100
AcDbLine
10
0
20
0
11
0
21
20
0
LINE
5
11D
330
107
100
AcDbEntity
8
0
6
BYLAYER
48
1
420
16711680
100
AcDbLine
10
210
20
297
11
210
21
277
0
LINE
5
11E
330
107
100
AcDbEntity
8
0
6
BYLAYER
48
1
420
16711680
100
AcDbLine
10
210
20
297
11
190
21
297
0
LINE
5
11F
330
107
100
AcDbEntity
8
0
6
BYLAYER
48
1
420
16711680
100
AcDbLine
10
210
20
1.4210854715202004e-14
11
210
21
20.000000000000014
0
LINE
5
120
330
107
100
AcDbEntity
8
0
6
BYLAYER
48
1
420
16711680
100
AcDbLine
10
210
20
1.4210854715202004e-14
11
190
21
1.4210854715202004e-14
0
LINE
5
121
330
107
100
AcDbEntity
8
0
6
BYLAYER
48
1
420
16711680
100
AcDbLine
10
0
20
297
11
20
21
297
0
LINE
5
122
330
107
100
AcDbEntity
8
0
6
BYLAYER
48
1
420
16711680
100
AcDbLine
10
0
20
297
11
0
21
277
0
ENDBLK
5
123
330
107
100
AcDbEntity
8
0
100
AcDbBlockEnd
0
ENDSEC
0
SECTION
2
ENTITIES
0
INSERT
5
114
330
103
100
AcDbEntity
8
0
6
BYLAYER
48
1
100
AcDbBlockReference
2
CON_RITRAM_A4_STÅENDE
10
1829.2950244711174
20
-35.67539646295701
30
0
41
1
42
1
43
1
50
0
0
ENDSEC
0
SECTION
2
OBJECTS
0
DICTIONARY
5
100
330
0
100
AcDbDictionary
281
1
3
ACAD_LAYOUT
350
101
0
DICTIONARY
5
101
330
100
100
AcDbDictionary
281
1
3
Model
350
104
3
Layout1
350
106
0
LAYOUT
5
104
330
101
100
AcDbPlotSettings
1

2

4
ISO 420 x 297 MM
40
0
41
0
42
0
43
0
44
420
45
297
46
0
47
0
142
1
143
1
70
0
72
1
73
0
74
5
100
AcDbLayout
1
Model
70
1
71
0
10
0
20
0
11
420
21
297
12
0
22
0
32
0
14
0
24
0
34
0
15
420
25
297
35
0
330
103
0
LAYOUT
5
106
330
101
100
AcDbPlotSettings
1

2

4
ISO 420 x 297 MM
40
0
41
0
42
0
43
0
44
420
45
297
46
0
47
0
142
1
143
1
70
0
72
1
73
0
74
5
100
AcDbLayout
1
Layout1
70
1
71
1
10
0
20
0
11
420
21
297
12
0
22
0
32
0
14
0
24
0
34
0
15
420
25
297
35
0
330
105
0
ENDSEC
0
EOF
